<?xml version="1.0" standalone="no"?><!DOCTYPE svg PUBLIC "-//W3C//DTD SVG 1.1//EN" "http://www.w3.org/Graphics/SVG/1.1/DTD/svg11.dtd"><svg t="1615029372156" class="icon" viewBox="0 0 1024 1024" version="1.1" xmlns="http://www.w3.org/2000/svg" p-id="7629" xmlns:xlink="http://www.w3.org/1999/xlink" width="100" height="100"><defs><style type="text/css"></style></defs><path d="M925.83936 137.94816L512 0 98.15552 137.94816a36.57216 36.57216 0 0 0-25.01632 34.66752v412.52352C73.14432 877.41952 477.40416 1024 512 1024c34.60096 0 438.8608-146.58048 438.8608-438.8608V172.61568a36.57728 36.57728 0 0 0-25.02144-34.66752z m-304.11776 447.19104a36.57728 36.57728 0 1 1 0 73.15456h-73.14944V768a36.57728 36.57728 0 0 1-73.14432 0V507.392c-78.22336-20.1984-125.26592-99.98848-105.06752-178.21184 20.1984-78.22336 99.98336-125.26592 178.21184-105.06752 78.22848 20.1984 125.27104 99.98848 105.06752 178.21184A146.28864 146.28864 0 0 1 548.57216 507.392v77.7472h73.14944z" fill="#1989FA" p-id="7630"></path><path d="M585.17504 365.7472c0.02048-40.3968-32.7168-73.15968-73.10848-73.17504H512c-40.3968 0.01536-73.12896 32.77824-73.10848 73.17504 0.02048 40.3712 32.73728 73.09312 73.10848 73.10848 40.40192 0.02048 73.15968-32.71168 73.17504-73.10848z" fill="#1989FA" p-id="7631"></path></svg>