<?xml version="1.0" standalone="no"?><!DOCTYPE svg PUBLIC "-//W3C//DTD SVG 1.1//EN" "http://www.w3.org/Graphics/SVG/1.1/DTD/svg11.dtd"><svg t="1614999747542" class="icon" viewBox="0 0 1024 1024" version="1.1" xmlns="http://www.w3.org/2000/svg" p-id="2129" xmlns:xlink="http://www.w3.org/1999/xlink" width="100" height="100"><defs><style type="text/css"></style></defs><path d="M780.8 437.76c40.96 0 74.24 33.28 74.24 74.24v347.648c0 40.96-33.28 74.24-74.24 74.24H234.496c-40.96 0-74.24-33.28-74.24-74.24V512c0-40.96 33.28-74.24 74.24-74.24h546.304m0-74.752H234.496c-82.432 0-148.992 66.56-148.992 148.992v347.648c0 82.432 66.56 148.992 148.992 148.992h546.304c82.432 0 148.992-66.56 148.992-148.992V512c0-82.432-66.56-148.992-148.992-148.992zM507.904 90.112c95.744 0 173.568 77.824 173.568 173.568v99.328H333.824V263.68c0-95.744 77.824-173.568 174.08-173.568m0-74.752C370.688 15.36 259.584 126.464 259.584 263.68v173.568h496.64V263.68C756.224 126.464 645.12 15.36 507.904 15.36z m0 782.336c-20.48 0-37.376-16.896-37.376-37.376v-148.992c0-20.48 16.896-37.376 37.376-37.376s37.376 16.896 37.376 37.376v148.992c-0.512 20.48-16.896 37.376-37.376 37.376z" fill="#5588E3" p-id="2130"></path><path d="M112.64 419.84h757.76v522.24H112.64z" fill="#5588E3" opacity=".4" p-id="2131"></path></svg>